<svg width="1440" height="1194" viewBox="0 0 1440 1194" fill="none" xmlns="http://www.w3.org/2000/svg">
<g opacity="0.3">
<mask id="mask0_325_2178" style="mask-type:alpha" maskUnits="userSpaceOnUse" x="0" y="0" width="1440" height="1194">
<g clip-path="url(#clip0_325_2178)">
<path d="M546.442 937.505C464.411 1070.12 204.122 1072.88 95.9582 1005.97C-12.2054 939.068 -400.284 55.9107 -318.252 -76.7073C-236.221 -209.325 621.832 573.854 729.996 640.759C838.159 707.664 628.474 804.887 546.442 937.505Z" fill="url(#paint0_linear_325_2178)"/>
<path d="M802.991 1580.95C802.991 1736.89 699.888 1863.3 572.705 1863.3C445.521 1863.3 -263 1826.95 -263 1671.01C-263 1515.08 -260.663 1105.99 -133.48 1105.99C202.473 1285.3 474.659 1022.54 697.128 1122.48C886.014 1207.33 763.845 1466.01 802.991 1580.95Z" fill="url(#paint1_radial_325_2178)"/>
<path d="M1821.93 1067.64C2165.09 1377.58 2006.57 1221.82 2301.32 1213.98C2347.55 1222.88 2426.05 1223.31 2370.12 1153.74C2300.22 1066.79 2322.75 1005.37 2235.38 910.639C2148.02 815.902 2094.81 719.652 1962.92 568.977C1831.02 418.301 1820.88 542.508 1672.18 530.733C1523.49 518.959 1591.31 537.657 1386.14 756.281C1180.98 974.904 1478.76 757.706 1821.93 1067.64Z" fill="#D9D9D9"/>
<path d="M1682.77 942.434C1448.11 996.504 1561.35 979.816 1465.16 1206.78C1446.17 1235.7 1419.59 1294.49 1465.16 1298.23C1522.12 1302.9 1538.15 1360.31 1603.98 1356.97C1669.81 1353.64 1724.72 1377 1827.05 1377C1929.37 1377 1885.03 1287.55 1939.6 1183.41C1994.18 1079.28 1964.16 1118 1949.15 819.607C1934.15 521.218 1917.43 888.363 1682.77 942.434Z" fill="#D9D9D9"/>
</g>
</mask>
<g mask="url(#mask0_325_2178)">
<line x1="-46.7793" y1="1043.72" x2="1553.88" y2="1043.72" stroke="#F97A58" stroke-width="1.33499"/>
<line x1="-46.7793" y1="701.967" x2="1553.88" y2="701.967" stroke="#F97A58" stroke-width="1.33499"/>
<line x1="-46.7793" y1="360.208" x2="1553.88" y2="360.207" stroke="#F97A58" stroke-width="1.33499"/>
<line x1="-46.7793" y1="872.845" x2="1553.88" y2="872.845" stroke="#F97A58" stroke-width="1.33499"/>
<line x1="-46.7793" y1="531.087" x2="1553.88" y2="531.087" stroke="#F97A58" stroke-width="1.33499"/>
<line x1="-46.7793" y1="189.33" x2="1553.88" y2="189.33" stroke="#F97A58" stroke-width="1.33499"/>
<line x1="-46.7793" y1="958.285" x2="1553.88" y2="958.285" stroke="#F97A58" stroke-width="1.33499"/>
<line x1="-46.7793" y1="616.527" x2="1553.88" y2="616.527" stroke="#F97A58" stroke-width="1.33499"/>
<line x1="-46.7793" y1="274.77" x2="1553.88" y2="274.77" stroke="#F97A58" stroke-width="1.33499"/>
<line x1="-46.7793" y1="787.405" x2="1553.88" y2="787.405" stroke="#F97A58" stroke-width="1.33499"/>
<line x1="-46.7793" y1="1129.16" x2="1553.88" y2="1129.16" stroke="#F97A58" stroke-width="1.33499"/>
<line x1="-46.7793" y1="445.647" x2="1553.88" y2="445.647" stroke="#F97A58" stroke-width="1.33499"/>
<line x1="-46.7793" y1="103.89" x2="1553.88" y2="103.89" stroke="#F97A58" stroke-width="1.33499"/>
<line x1="3.28078" y1="330.171" x2="3.28072" y2="1566.37" stroke="#F97A58" stroke-width="1.33499"/>
<line x1="686.8" y1="330.171" x2="686.8" y2="1566.37" stroke="#F97A58" stroke-width="1.33499"/>
<line x1="345.041" y1="330.171" x2="345.04" y2="1566.37" stroke="#F97A58" stroke-width="1.33499"/>
<line x1="1028.55" y1="330.171" x2="1028.55" y2="1566.37" stroke="#F97A58" stroke-width="1.33499"/>
<line x1="1370.32" y1="330.171" x2="1370.32" y2="1566.37" stroke="#F97A58" stroke-width="1.33499"/>
<line x1="174.162" y1="330.171" x2="174.162" y2="1566.37" stroke="#F97A58" stroke-width="1.33499"/>
<line x1="857.673" y1="330.171" x2="857.673" y2="1566.37" stroke="#F97A58" stroke-width="1.33499"/>
<line x1="515.921" y1="330.171" x2="515.921" y2="1566.37" stroke="#F97A58" stroke-width="1.33499"/>
<line x1="1199.44" y1="330.171" x2="1199.44" y2="1566.37" stroke="#F97A58" stroke-width="1.33499"/>
<line x1="88.7241" y1="330.171" x2="88.7241" y2="1566.37" stroke="#F97A58" stroke-width="1.33499"/>
<line x1="772.238" y1="330.171" x2="772.238" y2="1566.37" stroke="#F97A58" stroke-width="1.33499"/>
<line x1="430.478" y1="330.171" x2="430.478" y2="1566.37" stroke="#F97A58" stroke-width="1.33499"/>
<line x1="1114" y1="330.171" x2="1114" y2="1566.37" stroke="#F97A58" stroke-width="1.33499"/>
<line x1="259.603" y1="330.171" x2="259.603" y2="1566.37" stroke="#F97A58" stroke-width="1.33499"/>
<line x1="943.117" y1="330.171" x2="943.117" y2="1566.37" stroke="#F97A58" stroke-width="1.33499"/>
<line x1="601.357" y1="330.171" x2="601.357" y2="1566.37" stroke="#F97A58" stroke-width="1.33499"/>
<line x1="1284.87" y1="330.171" x2="1284.87" y2="1566.37" stroke="#F97A58" stroke-width="1.33499"/>
</g>
</g>
<defs>
<linearGradient id="paint0_linear_325_2178" x1="108.428" y1="279.047" x2="382.884" y2="750.204" gradientUnits="userSpaceOnUse">
<stop stop-color="white"/>
<stop offset="1" stop-color="white" stop-opacity="0"/>
</linearGradient>
<radialGradient id="paint1_radial_325_2178" cx="0" cy="0" r="1" gradientUnits="userSpaceOnUse" gradientTransform="translate(74.7528 1587.58) rotate(-29.3932) scale(822.809 1414.17)">
<stop stop-color="white"/>
<stop offset="1" stop-color="white" stop-opacity="0"/>
</radialGradient>
<clipPath id="clip0_325_2178">
<rect width="1440" height="1194" fill="white"/>
</clipPath>
</defs>
</svg>
